<svg xmlns="http://www.w3.org/2000/svg" width="153" height="55" viewBox="0 0 153 55">
    <g fill="none" fill-rule="evenodd">
        <g fill="#FFF">
            <g>
                <g>
                    <path fill-rule="nonzero" d="M82.553 18.919c-2.08 0-3.984 1.01-5.021 2.617l-.079-2.274h-1.83l.018.225c.09 1.134.124 2.135.124 3.57v11.587h1.914v-9.468c0-.465.098-.958.177-1.28.593-1.932 2.357-3.281 4.29-3.281 3.427 0 3.938 3.112 3.938 4.967v9.062h1.914v-9.187c0-6.223-4.536-6.538-5.445-6.538z" transform="translate(-330 -22) translate(330 22) translate(.744 .224)"/>
                    <g>
                        <g>
                            <path d="M28.989 8.236L28.992 8.239 14.727 16.475 14.727 16.472 14.724 16.472.464 8.239 14.727 0zM28.992 43.317L15.188 51.287 15.188 35.347z" transform="translate(-330 -22) translate(330 22) translate(.744 .224) translate(.2 .72) translate(.26 .174)"/>
                            <path d="M0 43.051L0 9.04 44.644 34.815 44.644 51.287 14.266 33.748 14.266 51.287zM44.644 16.206L30.846 8.239 44.644.269z" transform="translate(-330 -22) translate(330 22) translate(.744 .224) translate(.2 .72) translate(.26 .174)"/>
                            <path d="M59.835 8.505L59.835 43.051 45.569 51.287 45.569 34.28 15.652 17.007 29.917 8.771 29.921 8.771 45.569 17.808 45.569 0.269z" transform="translate(-330 -22) translate(330 22) translate(.744 .224) translate(.2 .72) translate(.26 .174)"/>
                        </g>
                    </g>
                    <path fill-rule="nonzero" d="M100.966 30.882V25.02c0-3.992-1.862-6.101-5.384-6.101-1.577 0-3.263.49-4.51 1.313l-.146.096.638 1.49.21-.15c.98-.7 2.276-1.085 3.655-1.085h.054c1.084 0 1.933.296 2.521.879.705.7 1.048 1.781 1.048 3.308v.196h-.06c-3.607 0-6.192.748-7.683 2.225-.924.913-1.392 2.082-1.392 3.472 0 2.083 1.442 4.324 4.606 4.324 2.185 0 3.808-1.082 4.703-2.21l.19 1.867h1.805l-.04-.242c-.19-1.173-.215-2.438-.215-3.52zm-6.288 2.44c-1.346 0-2.784-.764-2.784-2.909 0-.919.303-1.68.902-2.26 1.046-1.018 2.984-1.532 5.765-1.532.16 0 .325.001.49.005v3.009c0 .216-.024.536-.144.836-.47 1.379-1.826 2.852-4.229 2.852zM114.755 21.37c-.665-1.003-2.113-2.451-4.928-2.451-3.45 0-6.942 2.802-6.942 8.16 0 4.313 2.85 7.565 6.63 7.565 2.164 0 4.008-.905 5.06-2.452v1.464c0 3.875-1.755 5.84-5.216 5.84-1.637 0-3.099-.408-4.345-1.213l-.203-.133-.699 1.558.133.1c1.101.834 2.977 1.353 4.896 1.353.993 0 3.49-.18 5.226-1.836 1.468-1.395 2.122-3.575 2.122-7.072v-8.917c0-1.651.037-2.802.125-3.848l.019-.226h-1.8l-.078 2.107zm-4.865 11.61c-3.758 0-5.092-3.264-5.092-6.058 0-3.792 2.071-6.339 5.154-6.339 2.083 0 3.745 1.218 4.448 3.26.146.407.176.853.176 1.396v2.993c0 .49-.085 1.03-.238 1.518-.721 1.992-2.426 3.23-4.448 3.23zM135.098 27.886c-.523 1.598-.924 2.88-1.217 4.05-.355-1.267-.779-2.611-1.287-4.084l-2.915-8.59h-1.701l-3.043 8.652c-.467 1.356-.945 2.77-1.318 4.048-.278-1.095-.605-2.235-.973-3.522l-2.674-9.028-.044-.15h-1.966l4.698 15.235.045.147h1.61l3.01-8.43c.636-1.749 1.097-3.167 1.455-4.496.37 1.41.832 2.825 1.396 4.46l2.884 8.466h1.579l5.126-15.382h-1.97l-2.695 8.624zM151.056 34.402c-.19-1.173-.215-2.438-.215-3.52V25.02c0-3.992-1.862-6.101-5.384-6.101-1.577 0-3.264.49-4.51 1.313l-.146.096.638 1.49.21-.15c.98-.7 2.276-1.085 3.655-1.085h.053c1.085 0 1.934.296 2.522.879.705.7 1.048 1.781 1.048 3.308v.196h-.06c-3.607 0-6.192.748-7.683 2.225-.924.913-1.392 2.082-1.392 3.472 0 2.083 1.441 4.324 4.605 4.324 2.186 0 3.809-1.082 4.704-2.21l.19 1.867h1.805l-.04-.242zm-6.503-1.08c-1.346 0-2.784-.764-2.784-2.909 0-.919.303-1.68.902-2.26 1.046-1.018 2.984-1.532 5.765-1.532.16 0 .325.001.49.005v3.009c0 .216-.024.536-.144.836-.47 1.379-1.826 2.852-4.229 2.852z" transform="translate(-330 -22) translate(330 22) translate(.744 .224)"/>
                </g>
            </g>
        </g>
    </g>
</svg>